{"title":"Death in Paradise S05E03 x264 RB58.mp4","uid":13274158,"size":672976076,"categoryP":"video","categoryS":"tv_shows","magnet":"?xt=urn:btih:f01b1daec1f96f819a4f4eb50d7bca07cb704d20&amp;dn=Death+in+Paradise+S05E03+x264+RB58.mp4&amp;tr=udp%3A%2F%2Ftracker.leechers-paradise.org%3A6969&amp;tr=udp%3A%2F%2Fzer0day.ch%3A1337&amp;tr=udp%3A%2F%2Fopen.demonii.com%3A1337&amp;tr=udp%3A%2F%2Ftracker.coppersurfer.tk%3A6969&amp;tr=udp%3A%2F%2Fexodus.desync.com%3A6969","seeders":1,"leechers":0,"uploader":"RedBaron58","files":1,"time":1453424020,"description":"Death in Paradise S05E03 x264 mp4\r\n \nhttp://www.imdb.com/title/tt1888075/\r\n\r\nTrailer:\r\n\r\n\r\nPlease be patient My intial upload speed is limited.\r\nThank you for your kind comments and feedback on my other torrents, your feedback is welcome.\r\n\r\n\r\nAbout the Episode:\r\nA fashion show takes a chilling turn when young model Zoe Mackay is strangled just moments \r\nafter leaving the catwalk, and while the crew and other models come under suspicion, \r\nthey all have watertight alibis. \r\nTo make matters worse, there are no witnesses or DNA evidence, the only clue being a single \r\nstocking clasped in the victim's hand. \r\nMeanwhile, Florence tries to help Humphrey improve his social skills with the opposite sex.\r\n\r\n\r\nI hope you enjoy.\r\n\r\n\r\nTechnical:\r\n\r\nGeneral\r\nComplete name                            : G:Death in Paradise S05E03 x264 RB58.mp4\r\nFormat                                   : MPEG-4\r\nFormat profile                           : Base Media\r\nCodec ID                                 : isom\r\nFile size                                : 642 MiB\r\nDuration                                 : 58mn 58s\r\nOverall bit rate                         : 1 522 Kbps\r\nWriting application                      : Lavf54.63.104\r\n\r\nVideo\r\nID                                       : 1\r\nFormat                                   : AVC\r\nFormat/Info                              : Advanced Video Codec\r\nFormat profile                           :   \r\nFormat settings, CABAC                   : Yes\r\nFormat settings, ReFrames                : 4 frames\r\nCodec ID                                 : avc1\r\nCodec ID/Info                            : Advanced Video Coding\r\nDuration                                 : 58mn 58s\r\nBit rate                                 : 1 400 Kbps\r\nWidth                                    : 832 pixels\r\nHeight                                   : 468 pixels\r\nDisplay aspect ratio                     : 16:9\r\nFrame rate mode                          : Constant\r\nFrame rate                               : 25.000 fps\r\nColor space                              : YUV\r\nChroma subsampling                       : 4:2:0\r\nBit depth                                : 8 bits\r\nScan type                                : Progressive\r\nBits/(Pixel*Frame)                       : 0.144\r\nStream size                              : 591 MiB (92%)\r\nWriting library                          : x264 core 123 r2189 35cf912\r\nEncoding settings                        : cabac=1 / ref=3 / deblock=1:0:0\r\n\r\nAudio\r\nID                                       : 2\r\nFormat                                   : AAC\r\nFormat/Info                              : Advanced Audio Codec\r\nFormat profile                           : LC\r\nCodec ID                                 : 40\r\nDuration                                 : 58mn 58s\r\nBit rate mode                            : Constant\r\nBit rate                                 : 113 Kbps\r\nChannel(s)                               : 2 channels\r\nChannel positions                        : Front: L R\r\nSampling rate                            : 48.0 KHz\r\nCompression mode                         : Lossy\r\nStream size                              : 47.6 MiB (7%)","torrent":{"xt":"urn:btih:f01b1daec1f96f819a4f4eb50d7bca07cb704d20","amp;dn":"Death+in+Paradise+S05E03+x264+RB58.mp4","amp;tr":["udp%3A%2F%2Ftracker.leechers-paradise.org%3A6969","udp%3A%2F%2Fzer0day.ch%3A1337","udp%3A%2F%2Fopen.demonii.com%3A1337","udp%3A%2F%2Ftracker.coppersurfer.tk%3A6969","udp%3A%2F%2Fexodus.desync.com%3A6969"],"infoHash":"f01b1daec1f96f819a4f4eb50d7bca07cb704d20","infoHashBuffer":{"type":"Buffer","data":[240,27,29,174,193,249,111,129,154,79,78,181,13,123,202,7,203,112,77,32]},"announce":[],"urlList":[]}}